<?xml version="1.0" standalone="no"?><!DOCTYPE svg PUBLIC "-//W3C//DTD SVG 1.1//EN" "http://www.w3.org/Graphics/SVG/1.1/DTD/svg11.dtd">
<svg t="1533231484969" class="icon" style="" viewBox="0 0 1024 1024" version="1.1" 
  xmlns="http://www.w3.org/2000/svg" p-id="4176" 
  xmlns:xlink="http://www.w3.org/1999/xlink" width="200" height="200">
  <defs>
    <style type="text/css"></style>
  </defs>
  <path d="M318.53 364.64a628.41 628.41 0 0 0-167.75 320.9 396.91 396.91 0 0 0 197.77 192.37c-41.86-85.69-65.94-185.91-65.94-293.06 0-78.06 12.79-152.44 35.92-220.21z" p-id="4177"></path>
  <path d="M327.55 691.81a609.49 609.49 0 0 0 77.2 203.84A395.4 395.4 0 0 0 515 911.34c133.69 0 251.78-66.44 323.32-168a648.14 648.14 0 0 1-195.71 30.06 645.31 645.31 0 0 1-315.06-81.59z" p-id="4178"></path>
  <path d="M897 405.16C856.74 559.25 741.49 683 592.57 735.11a558 558 0 0 0 66.69 4A550.07 550.07 0 0 0 867.1 698.6 395 395 0 0 0 897 405.16zM756.29 557.5a494.06 494.06 0 0 0 106.88-237.24 397.14 397.14 0 0 0-158.48-157.89 463.89 463.89 0 0 0-140.48 37.37A719.22 719.22 0 0 1 756.29 557.5zM516.64 265.29S448 272.16 374.21 340.8c0 0-15.45 34.32-24 92.67 0 0 108.11-97.82 278-6.87-0.03 0-6.89-97.81-111.57-161.31z" p-id="4179"></path>
  <path d="M434.5 694.92s37.44-3.78 92.26-25.53c0 0-138.76-44.71-144.94-237.32 0 0-81.28 54.85-83.93 177.26 0 0 40.27 56.01 136.61 85.59z" p-id="4180"></path>
  <path d="M705.2 626.75s28.38-62.88 5.83-161.1c0 0-22-30.54-68.24-67.14 0 0 30.66 142.53-133 244.18-0.05 0 88.09 42.97 195.41-15.94zM464.79 513a45 45 0 1 0 45-45 45 45 0 0 0-45 45zM665.64 144.22A394.9 394.9 0 0 0 443.88 118l76.26 76.26a753 753 0 0 1 145.5-50.04zM483.3 212.12l-83.64-83.64c-165.73 47.05-287.17 199.39-287.17 380.2a395.48 395.48 0 0 0 13.71 103.25c66.65-172.64 194.6-314.72 357.1-399.81z" p-id="4181"></path>
</svg>
