<?xml version="1.0" standalone="no"?><!DOCTYPE svg PUBLIC "-//W3C//DTD SVG 1.1//EN" "http://www.w3.org/Graphics/SVG/1.1/DTD/svg11.dtd">
<svg t="1533231455026" class="icon" style="" viewBox="0 0 1024 1024" version="1.1" 
  xmlns="http://www.w3.org/2000/svg" p-id="4053" 
  xmlns:xlink="http://www.w3.org/1999/xlink" width="200" height="200">
  <defs>
    <style type="text/css"></style>
  </defs>
  <path d="M253.814938 380.016886c37.656291-10.106299 67.331019-31.349568 80.838123-54.850497-0.128834-0.177913 6.593021 7.263775 10.635949 10.642084-23.492749 13.500969-44.715568 43.208416-54.803462 80.866752-15.482556 57.915924 1.169729 112.670306 37.22071 122.300125 36.048936 9.656403 77.809505-29.44978 93.314555-87.351389 10.094029-37.670606 6.537806-73.999704-7.079726-97.445418 5.212658-0.901837 14.787262-3.981579 14.574584-3.897735-0.047035 27.110321 15.046975 60.335137 42.644001 87.911714 42.374064 42.361794 98.134577 55.314707 124.51484 28.91604 26.378218-26.386398 13.410989-82.138731-28.997839-124.50257-27.570442-27.588847-60.787078-42.648091-87.917849-42.609237-0.081799 0.206543 1.554186-4.554174 2.284244-7.17993 0.697339-2.625756 1.627805-7.564387 1.607356-7.359889 23.470254 13.597083 59.780947 17.110361 97.465868 7.030647 57.858664-15.552085 96.973028-57.339239 87.30231-93.38204-9.685033-36.042801-64.45373-52.674636-122.31853-37.163451-37.656291 10.122659-67.353514 31.351613-80.868797 54.864811 0.157464 0.149284-6.61347-7.263775-10.654354-10.654354 23.519333-13.515283 44.733973-43.210461 54.803462-80.881067 15.503006-57.887294-1.143145-112.641677-37.19208-122.29808-36.055071-9.658448-77.864719 29.476365-93.347275 87.349344-10.089939 37.682876-6.533716 73.999704 7.083816 97.459733-5.190163 0.903882-14.730002 3.967264-14.554134 3.897735 0.02863-27.110321-15.065379-60.347407-42.635821-87.895354-42.402694-42.390424-98.142757-55.329022-124.541425-28.942625-26.351633 26.412982-13.384405 82.138731 29.018289 124.541425 27.568397 27.547947 60.793213 42.635821 87.923984 42.580607 0.047035-0.163599-1.558276 4.554174-2.284244 7.181975-0.697339 2.640071-1.660525 7.550072-1.607356 7.359889-23.472299-13.609353-59.809577-17.138991-97.465868-7.004062-57.887294 15.5255-96.973028 57.326969-87.322759 93.355455C141.152811 378.896236 195.901059 395.542386 253.814938 380.016886zM411.247846 448.985936c-13.774996 51.525356-50.836198 88.265496-80.921967 80.210313-30.085769-8.057228-43.832136-58.37809-30.059185-109.907536 9.854766-36.781039 31.588831-66.052906 54.153158-76.817689 1.374228 0.875252 2.777085 1.68302 4.198347 2.462158-18.644097 40.145034-28.942625 79.020134-30.392517 114.844122 4.691188-30.02442 16.284188-67.134701 40.821923-109.989335 2.777085 1.06748 5.629834 1.997947 8.556203 2.777085 2.932504 0.793453 5.860917 1.394677 8.795466 1.860933-0.186093 49.392441-8.638002 87.322759-19.554114 115.678474 16.619565-31.760609 27.124636-70.568225 31.014191-114.680523 1.607356 0.026585 3.243341 0.0409 4.848651-0.042945C416.875636 376.010767 421.076028 412.190582 411.247846 448.985936zM559.521282 349.775698c37.711506 37.697191 51.014111 88.142797 28.991704 110.179519-22.016272 22.008092-72.488463 8.766836-110.199969-28.942625-26.973307-26.934453-41.417012-60.390352-39.47019-85.314587-0.184048 0.096114 2.648251-1.476477 4.198347-2.421258 25.441616 36.261614 53.975244 64.603014 84.294142 83.766536-23.656347-19.069453-49.981395-47.697151-74.854507-90.359557 4.670738-3.748451 8.9243-8.002013 12.713651-12.707516 42.682856 24.879246 71.292149 51.171575 90.380007 74.807472-19.190107-30.284133-47.539687-58.805491-83.793121-84.204162 1.032716-1.723919 2.564407-4.568489 2.386494-4.226977C499.145246 308.385271 532.547975 322.828976 559.521282 349.775698zM547.717649 171.73551c51.486502-13.787266 101.850309-0.096114 109.919806 29.98352 8.057228 30.079634-28.662462 67.161286-80.169414 80.991496-36.801489 9.848631-72.981303 5.662554-93.600853-8.509168-0.02863 0.384457 0.055215-2.871154 0.026585-4.842516 44.085713-3.897735 82.911734-14.443705 114.660073-31.10417-28.34958 10.969281-66.292169 19.451865-115.672339 19.642048-0.936602-5.950896-2.517372-11.777049-4.670738-17.343489 42.875084-24.537734 79.956736-36.179814 109.966841-40.897587-35.815808 1.476477-74.690908 11.791364-114.844122 30.488631-0.883432-1.599176-2.535777-4.390575-2.433528-4.198347C481.664743 203.348881 510.914115 181.627086 547.717649 171.73551zM387.644669 92.962819c13.795446-51.527401 50.836198-88.253226 80.893337-80.183729 30.108264 8.042913 43.85463 58.351505 30.059185 109.878906-9.854766 36.795354-31.588831 66.052906-54.153158 76.817689-1.347643-0.848667-2.7505-1.656435-4.206527-2.435573 18.678862-40.147079 28.971254-79.020134 30.427281-114.858437-4.699368 30.03669-16.316908 67.120386-40.823968 109.98729-2.777085-1.038851-5.627789-1.997947-8.562338-2.77504-2.928414-0.793453-5.860917-1.382408-8.815916-1.860933 0.184048-49.406755 8.666632-87.337074 19.580699-115.690744-16.6257 31.774924-27.130771 70.59481-31.016236 114.694838-1.660525-0.02863-3.269926-0.02863-4.903866 0.0409 0.02863 0.014315 0.02863-0.014315 0.047035-0.014315C381.98825 165.950257 377.789902 129.756128 387.644669 92.962819zM418.660905 199.175073c39.578574 10.613455 63.153122 51.416972 52.572387 91.018041-10.57869 39.599024-51.431287 63.179707-91.007816 52.580567-39.578574-10.601185-63.173572-51.431287-52.592837-90.989411C338.237913 212.156616 379.061881 188.602518 418.660905 199.175073zM239.371233 192.171011c-37.73809-37.682876-50.985481-88.130527-28.997839-110.152934 22.022407-22.020362 72.468013-8.766836 110.199969 28.930355 26.946723 26.932408 41.396563 60.376037 39.47428 85.312542 0.184048-0.108384-2.672791 1.478522-4.224932 2.421258-25.441616-36.247299-53.94866-64.615284-84.294142-83.766536 23.682932 19.067408 49.981395 47.697151 74.874956 90.345242-4.664603 3.748451-8.946795 8.014283-12.707516 12.721831-42.691036-24.866976-71.318733-51.14499-90.386142-74.807472 19.169658 30.296402 47.517192 58.803446 83.801301 84.204162-1.06748 1.791404-2.646206 4.650288-2.441708 4.226977C299.773854 233.577799 266.31591 219.117734 239.371233 192.171011zM221.397889 259.279127c36.830119-9.875216 73.007888-5.703454 93.629483 8.480539 0.026585-0.396726-0.055215 2.858884-0.02863 4.842516-44.091848 3.91205-82.917869 14.443705-114.686658 31.10417 28.34958-10.957011 66.292169-19.43755 115.672339-19.656363 0.959096 5.989751 2.546002 11.791364 4.699368 17.372119-42.875084 24.511149-79.9915 36.194129-109.99547 40.871002 35.842393-1.449892 74.717493-11.764779 114.862527-30.476361 0.910017 1.64212 2.546002 4.41716 2.415123 4.198347-10.764783 22.582732-39.989615 44.318841-76.797239 54.208372-51.533536 13.801581-101.850309 0.096114-109.913671-29.997835C133.191698 310.176674 169.917523 273.092978 221.397889 259.279127z" p-id="4054"></path>
  <path d="M747.367157 478.325287c-181.211955 10.752513-215.442902 120.576205-172.573952 197.064652-13.355775 18.793381-25.312782 39.447695-36.1246 61.402618-14.703418-98.388155-43.778966-196.641341-94.930091-308.340281-5.907952-12.912014-7.363979-4.799572-3.261746 6.593021 46.938463 130.138539 73.343265 261.407953 76.196014 392.667142-19.916076-28.533628-41.001881-53.016148-63.050873-73.492549 21.891528-78.144882-30.625644-169.612819-199.260962-153.786706-109.940256 10.327157-204.813087 125.923832-204.813087 125.923832s85.770618-12.488703 156.261134 25.715644c46.320878 25.100104 86.236874 66.437362 134.007644 74.42506 25.858792 4.335361 78.711342 9.985645 107.142721-53.8914 24.819942 27.069421 48.339275 61.443517 69.787042 104.829847-1.188134 48.88733-5.730038 97.77466-13.740231 146.563831l45.124564 0c4.772987-90.330927 4.45806-172.130191-4.877281-252.735186 13.124692-30.502946 27.308684-56.766644 42.25341-79.48639 37.991668 49.776897 86.461822 36.754454 110.63146 28.779026 47.134781-15.53777 81.058981-63.631648 124.062899-96.296139 65.423051-49.678738 154.210018-50.376077 154.210018-50.376077S860.350346 471.595252 747.367157 478.325287zM438.945077 741.457159c-74.848372-62.414883-159.948236-81.030351-248.070583-59.048844-3.139047 0.752553-1.374228 1.423307 1.376273 1.094065 77.623412-8.494854 165.050465 1.204494 241.616621 75.600925-0.678934 1.750504-1.114515 3.527593-1.867068 5.280142-21.372103 49.488555-57.163371 50.652149-89.375921 45.263623-27.337314-4.554174-53.140892-22.541832-80.429126-41.582656-15.380307-10.738198-31.304578-21.803594-48.263611-31.008056-42.513123-23.008088-107.662146-27.480463-140.805163-21.928338 38.359765-36.1655 115.512831-91.343193 182.845895-97.664231 90.071215-8.466224 135.334837 15.318957 157.430864 36.740139C436.689463 676.813246 445.531963 708.819253 438.945077 741.457159zM809.645027 610.349299c-15.744313 11.926333-30.134849 25.646114-44.044814 38.92827-24.662478 23.539783-47.983448 45.766688-74.956756 54.672583-30.695174 10.120614-65.740024 14.431435-94.551769-27.507048 71.627526-98.703082 158.128202-120.684589 227.138151-123.721387 2.858884-0.137014 4.513274-1.012266 1.216764-1.327193-98.087543-8.999964-178.95634 33.648127-237.976554 108.306316-16.599116-34.823992-13.877245-72.919954 8.247411-102.136606 19.032644-25.141004 61.15722-56.286074 153.690592-61.770714 69.171503-4.118593 155.919622 39.736038 200.430692 70.347367C914.36649 565.70326 849.066137 580.380093 809.645027 610.349299z" p-id="4055"></path>
</svg>
